HIERARCHY
ROOT Hips
{
	OFFSET 0.000000 0.000000 0.000000
	CHANNELS 6 Xposition Yposition Zposition Zrotation Yrotation Xrotation 
	JOINT LHipJoint
	{
		OFFSET 0.000000 0.000000 0.000000
		CHANNELS 3 Zrotation Yrotation Xrotation
		JOINT LeftUpLeg
		{
			OFFSET 1.363060 -1.794630 0.839290
			CHANNELS 3 Zrotation Yrotation Xrotation
			JOINT LeftLeg
			{
				OFFSET 2.448110 -6.726130 0.000000
				CHANNELS 3 Zrotation Yrotation Xrotation
				JOINT LeftFoot
				{
					OFFSET 2.562200 -7.039590 0.000000
					CHANNELS 3 Zrotation Yrotation Xrotation
					JOINT LeftToeBase
					{
						OFFSET 0.157640 -0.433110 2.322550
						CHANNELS 3 Zrotation Yrotation Xrotation
						End Site
						{
							OFFSET 0.000000 0.000000 0.000000
						}
					}
				}
			}
		}
	}
	JOINT RHipJoint
	{
		OFFSET 0.000000 0.000000 0.000000
		CHANNELS 3 Zrotation Yrotation Xrotation
		JOINT RightUpLeg
		{
			OFFSET -1.305520 -1.794630 0.839290
			CHANNELS 3 Zrotation Yrotation Xrotation
			JOINT RightLeg
			{
				OFFSET -2.542530 -6.985550 0.000000
				CHANNELS 3 Zrotation Yrotation Xrotation
				JOINT RightFoot
				{
					OFFSET -2.568260 -7.056230 0.000000
					CHANNELS 3 Zrotation Yrotation Xrotation
					JOINT RightToeBase
					{
						OFFSET -0.164730 -0.452590 2.363150
						CHANNELS 3 Zrotation Yrotation Xrotation
						End Site
						{
							OFFSET 0.000000 0.000000 0.000000
						}
					}
				}
			}
		}
	}
}
MOTION
Frames: 30
Frame Time: 0.008333
17.577222 16.602208 1.620227 136.652804 -86.412914 -82.091434 -8.290535 -0.288465 2.794311 -12.414169 -9.863648 -61.499545 -3.262943 -1.171411 18.276104 3.624114 12.376096 -14.422234 -0.656000 0.000000 -35.690400 8.660922 1.044152 4.869054 -0.981671 7.459574 -64.765058 1.881821 0.364325 19.653128 -3.474930 -9.900519 -12.262698 -0.538000 -0.000000 -58.900500
17.546166 16.506333 1.615565 133.636640 -86.319893 -78.076869 -8.200254 -0.215465 2.938298 -12.386481 -10.646922 -63.962386 -3.228155 -0.850910 21.122873 3.796878 12.455376 -15.615463 -0.936700 -0.000000 -35.461000 8.686113 1.138953 4.986766 -1.422712 7.460758 -67.414783 1.809358 -0.025914 22.821358 -3.619205 -9.872806 -13.703342 -0.249800 0.000000 -58.548800
17.514168 16.399370 1.610884 130.747724 -86.209634 -74.190222 -8.124960 -0.140393 3.092837 -12.348520 -11.427579 -66.535943 -3.176428 -0.494313 24.171121 3.965454 12.499953 -16.858200 -1.234900 -0.000001 -35.325500 8.715601 1.238357 5.112805 -1.868695 7.425725 -70.149363 1.728650 -0.447053 26.157595 -3.754589 -9.828812 -15.163419 0.047000 0.000000 -58.256600
17.480850 16.281331 1.606401 127.996286 -86.089982 -70.446530 -8.067372 -0.071277 3.257202 -12.274894 -12.204851 -69.204448 -3.099263 -0.105520 27.405651 4.129256 12.525326 -18.132125 -1.545400 0.000001 -35.311101 8.747703 1.340753 5.246680 -2.314007 7.362289 -72.941981 1.635727 -0.892686 29.625496 -3.881428 -9.784687 -16.616103 0.346099 0.000000 -58.042900
17.446447 16.152632 1.602342 125.364678 -85.968511 -66.837901 -8.029847 -0.017094 3.429768 -12.142130 -12.973222 -71.942215 -2.989458 0.308342 30.799019 4.287145 12.546470 -19.416346 -1.863400 0.000000 -35.438300 8.779839 1.443803 5.386472 -2.748995 7.276657 -75.757973 1.528115 -1.354928 33.183621 -3.999657 -9.751952 -18.039439 0.643200 -0.000000 -57.920600
17.411144 16.013676 1.598915 122.823606 -85.855551 -63.338383 -8.010350 0.015339 3.608601 -11.929790 -13.725866 -74.727116 -2.842822 0.737694 34.316459 4.437994 12.575516 -20.692009 -2.184800 0.000000 -35.713000 8.812456 1.546310 5.530374 -3.163101 7.175655 -78.569864 1.404613 -1.825543 36.790350 -4.109295 -9.737162 -19.419987 0.936200 0.000000 -57.888300
17.374702 15.865738 1.596323 120.299670 -85.756343 -59.895757 -8.007801 0.019282 3.788571 -11.630871 -14.448448 -77.508886 -2.658836 1.171126 37.909447 4.579647 12.620070 -21.943726 -2.506700 -0.000001 -36.134600 8.843806 1.647122 5.671223 -3.541129 7.059108 -81.328987 1.266008 -2.297347 40.407555 -4.209091 -9.739985 -20.751958 1.225100 0.000000 -57.951900
17.337154 15.709418 1.594602 117.761733 -85.674589 -56.479079 -8.018630 -0.007552 3.968823 -11.242511 -15.133543 -80.264979 -2.440354 1.598504 41.535672 4.711603 12.685034 -23.163711 -2.827900 -0.000000 -36.675900 8.874175 1.745067 5.808015 -3.875183 6.932245 -84.016238 1.113638 -2.763901 44.001955 -4.299133 -9.757649 -22.039045 1.510800 -0.000000 -58.080700
17.285093 15.531429 1.616930 103.218302 -85.794104 -40.726683 -8.085413 -0.119524 4.518033 -9.864531 -16.426806 -83.750809 -2.055834 1.926499 45.196695 4.848117 12.818834 -24.091055 -3.054700 0.000001 -37.705900 8.889851 1.692119 5.987338 -3.571550 6.498480 -87.006548 1.071478 -3.295643 47.478783 -4.435002 -9.861975 -23.420703 1.827300 0.000000 -58.045600
17.245269 15.362191 1.616805 100.689431 -85.717663 -37.436138 -8.094852 -0.195315 4.685097 -9.337537 -16.983343 -86.338573 -1.793857 2.311621 48.737858 4.957737 12.913565 -25.248508 -3.374800 -0.000000 -38.390100 8.936191 1.792891 6.103290 -3.795705 6.361219 -89.467430 0.892644 -3.749452 50.965489 -4.503284 -9.883208 -24.649037 2.114500 -0.000000 -58.230700
17.204153 15.188812 1.617334 98.019685 -85.657601 -34.075884 -8.104175 -0.290175 4.841892 -8.777064 -17.479174 -88.792370 -1.520701 2.672940 52.190745 5.057797 13.020181 -26.394471 -3.699700 -0.000001 -39.055200 8.984937 1.896207 6.201905 -3.955816 6.213250 -91.775220 0.706801 -4.187342 54.360864 -4.561394 -9.898636 -25.867099 2.403300 0.000000 -58.408400
17.161682 15.012803 1.618406 95.221924 -85.609384 -30.665232 -8.111237 -0.397696 4.985879 -8.210469 -17.914362 -91.087852 -1.244149 3.009728 55.530027 5.149696 13.134169 -27.543050 -4.033000 -0.000000 -39.647700 9.036307 2.003535 6.280943 -4.052560 6.054342 -93.915745 0.515625 -4.608231 57.653203 -4.610552 -9.904128 -27.086450 2.694400 0.000000 -58.551000
17.117254 14.835535 1.619849 92.342900 -85.568590 -27.250248 -8.115052 -0.510616 5.115267 -7.664775 -18.292030 -93.207642 -0.970719 3.322860 58.737519 5.235351 13.252457 -28.706798 -4.377400 -0.000000 -40.125000 9.090717 2.116201 6.339797 -4.089671 5.885714 -95.879609 0.320120 -5.010833 60.832163 -4.652512 -9.898707 -28.313045 2.987700 -0.000000 -58.656101
17.071115 14.658725 1.621519 89.438896 -85.528574 -23.892380 -8.116481 -0.624347 5.229043 -7.163436 -18.617646 -95.138985 -0.704901 3.614493 61.803031 5.316480 13.373844 -29.892743 -4.734800 0.000000 -40.460800 9.146802 2.233578 6.379382 -4.074140 5.708460 -97.659764 0.120463 -5.393956 63.889263 -4.689584 -9.885776 -29.546113 3.282300 0.000001 -58.720700
17.022478 14.483671 1.623279 86.583704 -85.486817 -20.658738 -8.116500 -0.733911 5.327064 -6.723090 -18.897935 -96.880848 -0.449091 3.887100 64.723099 5.394734 13.499416 -31.099643 -5.105000 -0.000000 -40.652099 9.204301 2.355598 6.402276 -4.015771 5.526294 -99.257614 -0.083648 -5.755862 66.816825 -4.724177 -9.871856 -30.776991 3.576400 0.000000 -58.766200
16.971591 14.311753 1.624989 83.844374 -85.440398 -17.611791 -8.116816 -0.836907 5.410582 -6.352122 -19.140301 -98.439183 -0.203606 4.143111 67.499313 5.471081 13.632004 -32.316499 -5.485300 0.000000 -40.721600 9.262113 2.480686 6.412636 -3.926500 5.343966 -100.678953 -0.293024 -6.094632 69.608453 -4.759067 -9.867631 -31.991577 3.868500 0.000000 -58.813000
16.917660 14.144192 1.626478 81.302307 -85.388394 -14.822867 -8.119033 -0.931994 5.481076 -6.053030 -19.351794 -99.825123 0.032629 4.384386 70.135408 5.545852 13.776088 -33.522788 -5.871100 -0.000000 -40.709000 9.319569 2.607375 6.415047 -3.820765 5.166660 -101.932026 -0.508291 -6.407925 72.257691 -4.796442 -9.884213 -33.172726 4.157700 0.000000 -58.856800
16.860796 13.981919 1.627846 78.942162 -85.333414 -12.264467 -8.124762 -1.018923 5.545029 -5.810786 -19.538834 -101.063377 0.263086 4.611627 72.638892 5.618619 13.936869 -34.688695 -6.255000 -0.000000 -40.699600 9.376213 2.732743 6.417467 -3.710257 5.004431 -103.034126 -0.730628 -6.693445 74.759397 -4.838877 -9.938934 -34.292358 4.443300 -0.000000 -59.023400
16.800618 13.826092 1.628791 76.844229 -85.273774 -10.007598 -8.134920 -1.099247 5.604085 -5.618707 -19.707109 -102.167067 0.490004 4.825008 75.012635 5.688236 14.119536 -35.781907 -6.629600 -0.000000 -40.747200 9.431450 2.854889 6.424120 -3.611073 4.861065 -103.995464 -0.959614 -6.949129 77.108440 -4.887269 -10.040396 -35.336781 4.726000 0.000000 -59.233900
16.737368 13.677513 1.629228 75.000180 -85.211242 -8.032816 -8.149935 -1.174264 5.663847 -5.457134 -19.861484 -103.158320 0.716647 5.023595 77.260615 5.753056 14.327921 -36.768287 -6.986300 0.000000 -40.930000 9.485307 2.971684 6.441075 -3.534923 4.743298 -104.831873 -1.194963 -7.173404 79.301614 -4.942423 -10.200037 -36.285292 5.006800 -0.000000 -59.548300
16.670757 13.536909 1.629035 73.398903 -85.146805 -6.320348 -8.169764 -1.245397 5.729342 -5.307147 -20.005867 -104.054356 0.945184 5.205794 79.383308 5.811363 14.563890 -37.619034 -7.317200 0.000001 -41.302401 9.537835 3.081377 6.473074 -3.491334 4.656048 -105.556835 -1.435251 -7.365398 81.337473 -5.004635 -10.424040 -37.128150 5.287200 -0.000000 -59.949700
16.600965 13.404863 1.628112 72.019082 -85.081075 -4.843117 -8.193968 -1.313639 5.804894 -5.151860 -20.143090 -104.866762 1.176441 5.369677 81.378454 5.861511 14.826342 -38.313755 -7.615800 -0.000000 -41.896600 9.589280 3.182898 6.523079 -3.486244 4.601804 -106.179531 -1.678291 -7.524989 83.216422 -5.073548 -10.714107 -37.861601 5.568700 -0.000000 -60.420100
16.528335 13.281863 1.626319 70.840907 -85.013026 -3.578331 -8.221820 -1.379816 5.893071 -4.979954 -20.275744 -105.599855 1.409457 5.513299 83.241224 5.902286 15.110922 -38.843897 -7.877200 -0.000000 -42.718499 9.639983 3.275464 6.591782 -3.521775 4.579628 -106.706469 -1.921229 -7.653190 84.941092 -5.148006 -11.065854 -38.488215 5.851500 0.000000 -60.952900
16.453084 13.168569 1.623568 69.826086 -84.940226 -2.494119 -8.252735 -1.445123 5.995460 -4.785865 -20.404488 -106.247254 1.641316 5.634862 84.963657 5.933117 15.410051 -39.215350 -8.099400 0.000000 -43.735500 9.690000 3.357166 6.677923 -3.593771 4.586524 -107.135105 -2.160275 -7.751660 86.514994 -5.226950 -11.470190 -39.022025 6.136300 0.000000 -61.485100
16.375600 13.065247 1.619791 68.960148 -84.862691 -1.581040 -8.285551 -1.507540 6.111100 -4.572562 -20.529092 -106.798350 1.867652 5.733665 86.538104 5.954417 15.714006 -39.448309 -8.283900 0.000000 -44.893000 9.740106 3.429424 6.777985 -3.695942 4.616893 -107.462620 -2.391599 -7.823052 87.944420 -5.308405 -11.913234 -39.478450 6.421800 -0.000000 -62.001600
16.296128 12.972341 1.614959 68.210387 -84.778544 -0.816443 -8.320051 -1.566546 6.237810 -4.349146 -20.647239 -107.231829 2.082471 5.809183 87.954676 5.967484 16.012264 -39.576509 -8.435800 -0.000000 -46.107899 9.790608 3.490791 6.886617 -3.814657 4.664531 -107.676793 -2.610608 -7.870225 89.234217 -5.390652 -12.378516 -39.880018 6.707400 -0.000000 -62.445000
16.215179 12.890303 1.609107 67.560699 -84.688264 -0.196444 -8.355219 -1.620095 6.369117 -4.131963 -20.756936 -107.525010 2.279479 5.862128 89.205883 5.974464 16.295870 -39.642044 -8.564600 -0.000000 -47.293800 9.841615 3.542864 6.994895 -3.935331 4.721052 -107.766200 -2.813032 -7.897030 90.389873 -5.471159 -12.847626 -40.245602 6.990700 -0.000000 -62.817300
16.133298 12.819542 1.602319 66.990091 -84.585140 0.281675 -8.391878 -1.668769 6.503620 -3.941531 -20.856790 -107.648142 2.451828 5.893150 90.284411 5.977946 16.556929 -39.690907 -8.681700 -0.000000 -48.363800 9.894318 3.579079 7.099351 -4.039709 4.777469 -107.714056 -2.995086 -7.906359 91.414476 -5.548124 -13.303707 -40.593819 7.269700 -0.000001 -63.088600
16.050813 12.760287 1.594723 66.488795 -84.468728 0.617025 -8.430058 -1.711111 6.635643 -3.798713 -20.944410 -107.579334 2.593960 5.903859 91.186403 5.980830 16.791854 -39.765249 -8.800000 -0.000001 -49.256200 9.949327 3.597602 7.192926 -4.110687 4.825758 -107.509221 -3.153432 -7.901547 92.310073 -5.619438 -13.731967 -40.934972 7.541300 -0.000000 -63.285400
15.967707 12.712746 1.586518 66.039817 -84.341164 0.818870 -8.470437 -1.745371 6.760970 -3.720264 -21.014242 -107.303896 2.701849 5.896358 91.910428 5.985559 16.999392 -39.897192 -8.929900 -0.000000 -49.939000 10.006881 3.595957 7.270662 -4.131729 4.861810 -107.143490 -3.285054 -7.884892 93.074572 -5.683478 -14.121136 -41.272089 7.801300 0.000000 -63.433400
